<svg width="370" height="503" viewBox="0 0 370 503" fill="none" xmlns="http://www.w3.org/2000/svg">
<path d="M265.644 397.593H31.429V61.671H265.58V86.801H297.052V54.811C297.073 24.677 272.331 0 242.218 0H54.833C24.677 0 0 24.677 0 54.811V447.831C0 478.009 24.677 502.664 54.833 502.664H242.218C272.331 502.664 297.073 478.009 297.073 447.831V397.01H265.644V397.593ZM148.493 475.226C134.601 475.226 123.385 463.988 123.385 450.118C123.385 436.205 134.602 424.988 148.493 424.988C162.406 424.988 173.645 436.226 173.645 450.118C173.645 463.988 162.407 475.226 148.493 475.226Z" fill="white"/>
<path d="M133.557 140.073V286.206C133.557 297.232 142.527 306.202 153.553 306.202H182.925L204.544 343.649C206.308 346.705 209.57 348.588 213.098 348.588C216.627 348.588 219.888 346.705 221.652 343.649L243.273 306.202H272.644C283.67 306.202 292.64 297.232 292.64 286.206V140.073C292.64 129.047 283.67 120.077 272.644 120.077H153.553C142.527 120.077 133.557 129.047 133.557 140.073ZM213.097 147.596C228.619 147.596 241.247 160.224 241.247 175.747C241.247 191.269 228.619 203.897 213.097 203.897C197.575 203.897 184.947 191.269 184.947 175.747C184.947 160.224 197.575 147.596 213.097 147.596ZM213.097 215.078C242.926 215.078 267.193 239.346 267.193 269.175C267.193 274.63 262.771 279.053 257.315 279.053H168.879C163.423 279.053 159.001 274.63 159.001 269.175C159.001 239.346 183.268 215.078 213.097 215.078Z" fill="white"/>
<path d="M331.932 356.244H94.2666C88.8112 356.244 84.3887 360.667 84.3887 366.122C84.3887 371.577 88.8112 376 94.2666 376H331.932C337.387 376 341.81 371.577 341.81 366.122C341.81 360.666 337.387 356.244 331.932 356.244Z" fill="white"/>
<path d="M104.676 259.725C106.44 262.781 109.701 264.664 113.229 264.664C115.366 264.664 117.403 263.972 119.07 262.747C119.906 262.133 120.386 261.145 120.386 260.108V140.073C120.386 121.755 135.235 106.906 153.552 106.906H158.254C156.559 106.321 154.742 106 152.851 106H73.6095C64.4365 106 57 113.436 57 122.61V219.847C57 229.021 64.4365 236.457 73.6095 236.457H91.244L104.676 259.725Z" fill="white"/>
<path d="M352.581 106H273.34C271.449 106 269.634 106.321 267.938 106.906H272.645C290.963 106.906 305.812 121.755 305.812 140.073V260.114C305.812 261.151 306.292 262.141 307.129 262.755C308.794 263.975 310.828 264.666 312.961 264.666C316.49 264.666 319.752 262.783 321.516 259.726L334.948 236.458H352.582C361.756 236.458 369.192 229.022 369.192 219.848V122.61C369.191 113.436 361.754 106 352.581 106Z" fill="white"/>
</svg>
