<svg width="341" height="503" viewBox="0 0 341 503" fill="none" xmlns="http://www.w3.org/2000/svg">
<path d="M265.644 397.593H31.429V61.671H265.58V86.801H297.052V54.811C297.073 24.677 272.331 0 242.218 0H54.833C24.677 0 0 24.677 0 54.811V447.831C0 478.009 24.677 502.664 54.833 502.664H242.218C272.331 502.664 297.073 478.009 297.073 447.831V397.01H265.644V397.593ZM148.493 475.226C134.601 475.226 123.385 463.988 123.385 450.118C123.385 436.205 134.602 424.988 148.493 424.988C162.406 424.988 173.645 436.226 173.645 450.118C173.645 463.988 162.407 475.226 148.493 475.226Z" fill="white"/>
<path d="M341 237C341 264.689 332.789 291.757 317.406 314.78C302.022 337.803 280.157 355.747 254.576 366.343C228.994 376.939 200.845 379.712 173.687 374.31C146.53 368.908 121.584 355.574 102.005 335.995C82.4258 316.416 69.0921 291.47 63.6901 264.313C58.2882 237.155 61.0607 209.006 71.6569 183.424C82.2532 157.843 100.197 135.978 123.22 120.594C146.243 105.211 173.311 97 201 97C219.385 97 237.59 100.621 254.576 107.657C271.561 114.693 286.995 125.005 299.995 138.005C312.995 151.005 323.307 166.439 330.343 183.424C337.379 200.41 341 218.615 341 237ZM291.309 237.035C291.309 219.174 286.013 201.713 276.09 186.862C266.166 172.011 252.062 160.436 235.56 153.6C219.058 146.765 200.9 144.977 183.382 148.461C165.863 151.946 149.772 160.547 137.142 173.177C124.512 185.807 115.91 201.899 112.426 219.417C108.941 236.935 110.73 255.093 117.565 271.595C124.4 288.097 135.975 302.202 150.827 312.125C165.678 322.048 183.139 327.345 201 327.345C224.952 327.345 247.922 317.83 264.858 300.894C281.795 283.957 291.309 260.987 291.309 237.035ZM142.362 188.211L249.824 295.674C235.195 307.852 216.543 314.123 197.528 313.256C178.513 312.389 160.508 304.446 147.049 290.987C133.589 277.527 125.646 259.523 124.779 240.508C123.912 221.493 130.183 202.84 142.362 188.211ZM254.952 183.083C268.422 196.515 276.381 214.499 277.264 233.501C278.148 252.502 271.892 271.147 259.727 285.771L152.247 178.309C166.872 166.147 185.516 159.894 204.517 160.777C223.517 161.661 241.519 169.617 254.952 183.083Z" fill="white"/>
</svg>
