<svg width="508" height="333" viewBox="0 0 508 333" fill="none" xmlns="http://www.w3.org/2000/svg">
<path d="M507.111 0H0.111108C0.111108 3.33333 -0.888877 13.5 3.11111 25C8.12574 39.4171 13.1111 50 25.1111 61C37.1111 72 60.1111 81 72.1111 84C84.1111 87 126.111 94 143.111 94C160.111 94 198.111 99 214.111 100C230.111 101 249.111 105 267.111 108C285.111 111 298.045 118.007 306.111 123C316.611 129.5 332.111 140 342.111 154C354.232 170.969 358.111 186 365.111 207C370.711 223.8 386.111 252.667 394.111 266C399.444 274.667 414.511 294.6 440.111 313C465.711 331.4 495.778 334 507.111 332V0Z" fill="url(#paint0_linear_30_3)"/>
<defs>
<linearGradient id="paint0_linear_30_3" x1="253.556" y1="-1.13104e-06" x2="266" y2="303" gradientUnits="userSpaceOnUse">
<stop stop-color="#2589EE"/>
<stop offset="0.516704" stop-color="#2328EA"/>
<stop offset="1" stop-color="#0102FD"/>
</linearGradient>
</defs>
</svg>
